<svg width="76" height="76" viewBox="0 0 76 76" fill="none" xmlns="http://www.w3.org/2000/svg">
<mask id="mask0_185_940" style="mask-type:alpha" maskUnits="userSpaceOnUse" x="0" y="0" width="76" height="76">
<rect x="0.625" y="0.695312" width="74.752" height="74.752" fill="#D9D9D9"/>
</mask>
<g mask="url(#mask0_185_940)">
<path d="M20.5574 68.9855L19.623 61.8217L29.5899 34.4126C30.3686 35.2951 31.2641 35.983 32.2763 36.4761C33.2886 36.9693 34.3138 37.3197 35.3521 37.5273L25.7745 63.9241L20.5574 68.9855ZM55.5195 68.9855L50.2246 63.9241L40.4913 37.6052C41.5295 37.3975 42.5677 37.0471 43.6059 36.554C44.6441 36.0608 45.5526 35.373 46.3313 34.4905L56.3761 61.8217L55.5195 68.9855ZM37.9995 36.2815C35.0665 36.2815 32.5553 35.2367 30.4659 33.1473C28.3765 31.0579 27.3318 28.5467 27.3318 25.6137C27.3318 23.122 28.0326 20.9417 29.4342 19.0729C30.8358 17.2041 32.6267 15.9904 34.807 15.4319V8.32732H41.1921V15.4132C43.3723 15.9842 45.1633 17.2041 46.5649 19.0729C47.9665 20.9417 48.6673 23.122 48.6673 25.6137C48.6673 28.5467 47.6225 31.0579 45.5331 33.1473C43.4437 35.2367 40.9325 36.2815 37.9995 36.2815ZM38.0077 29.8185C39.1443 29.8185 40.1279 29.4005 40.9585 28.5645C41.789 27.7284 42.2043 26.7421 42.2043 25.6055C42.2043 24.4689 41.7863 23.4854 40.9503 22.6548C40.1142 21.8242 39.1279 21.4089 37.9913 21.4089C36.8547 21.4089 35.8712 21.8269 35.0406 22.663C34.21 23.499 33.7947 24.4853 33.7947 25.6219C33.7947 26.7585 34.2127 27.7421 35.0488 28.5726C35.8848 29.4032 36.8712 29.8185 38.0077 29.8185Z" fill="#1C1B1F"/>
</g>
</svg>
