<svg width="76" height="76" viewBox="0 0 76 76" fill="none" xmlns="http://www.w3.org/2000/svg">
<mask id="mask0_182_266" style="mask-type:alpha" maskUnits="userSpaceOnUse" x="0" y="0" width="76" height="76">
<rect x="0.625" y="0.695312" width="74.752" height="74.752" fill="#D9D9D9"/>
</mask>
<g mask="url(#mask0_182_266)">
<path d="M20.5574 68.9855L19.623 61.8218L29.5899 34.4127C30.3686 35.2952 31.2641 35.983 32.2763 36.4762C33.2886 36.9693 34.3138 37.3197 35.3521 37.5274L25.7745 63.9242L20.5574 68.9855ZM55.5195 68.9855L50.2246 63.9242L40.4913 37.6053C41.5295 37.3976 42.5677 37.0472 43.6059 36.5541C44.6441 36.0609 45.5526 35.3731 46.3313 34.4906L56.3761 61.8218L55.5195 68.9855ZM37.9995 36.2815C35.0665 36.2815 32.5553 35.2368 30.4659 33.1474C28.3765 31.058 27.3318 28.5468 27.3318 25.6138C27.3318 23.1221 28.0326 20.9418 29.4342 19.073C30.8358 17.2042 32.6267 15.9905 34.807 15.4319V8.32739H41.1921V15.4133C43.3723 15.9843 45.1633 17.2042 46.5649 19.073C47.9665 20.9418 48.6673 23.1221 48.6673 25.6138C48.6673 28.5468 47.6225 31.058 45.5331 33.1474C43.4437 35.2368 40.9325 36.2815 37.9995 36.2815ZM38.0077 29.8186C39.1443 29.8186 40.1279 29.4006 40.9585 28.5646C41.789 27.7285 42.2043 26.7422 42.2043 25.6056C42.2043 24.469 41.7863 23.4854 40.9503 22.6549C40.1142 21.8243 39.1279 21.409 37.9913 21.409C36.8547 21.409 35.8712 21.827 35.0406 22.663C34.21 23.4991 33.7947 24.4854 33.7947 25.622C33.7947 26.7586 34.2127 27.7421 35.0488 28.5727C35.8848 29.4033 36.8712 29.8186 38.0077 29.8186Z" fill="#1C1B1F"/>
</g>
</svg>
