<svg width="404" height="67" viewBox="0 0 404 67" fill="none" xmlns="http://www.w3.org/2000/svg">
<rect x="365.765" y="14.0015" width="23.6917" height="27.2813" fill="#F7F0E2"/>
<path d="M1.93612 31.0017C2.53389 31.0017 3.01848 30.2438 3.01848 29.3089C3.01848 28.3741 2.53389 27.6162 1.93612 27.6162C1.33835 27.6162 0.85376 28.3741 0.85376 29.3089C0.85376 30.2438 1.33835 31.0017 1.93612 31.0017Z" fill="#0D3B66"/>
<path d="M376.67 25.1088H374.184V17.6741H376.67C377.343 17.6741 377.924 17.9181 378.412 18.406C378.908 18.8861 379.156 19.4631 379.156 20.1368V22.6228C379.156 23.2966 378.908 23.8813 378.412 24.3769C377.924 24.8648 377.343 25.1088 376.67 25.1088Z" fill="#0D3B66"/>
<path fill-rule="evenodd" clip-rule="evenodd" d="M351.494 28.4322C348.585 18.8811 351.199 0 377.893 0L376.334 0.0552564C403.025 0.0552564 405.639 18.9364 402.73 28.4874C399.426 39.337 379.471 66.106 379.471 66.106L374.754 66.0507C374.754 66.0507 354.798 39.2818 351.494 28.4322ZM383.457 25.0752C383.888 24.3417 384.104 23.5242 384.104 22.6228V20.1368C384.104 18.7893 383.616 17.6276 382.641 16.6518C381.672 15.6761 380.511 15.1882 379.156 15.1882H369.235V37.4921H374.184V27.5715H377.76C377.573 28.295 377.63 29.0292 377.798 29.5765C378.346 31.3546 381.654 35.7415 381.654 35.7415L382.436 35.7505C382.436 35.7505 385.743 31.3636 386.291 29.5856C386.71 28.2255 386.438 25.7111 383.457 25.0752Z" fill="#0D3B66"/>
<path d="M191.812 66.7674C188.855 66.7674 186.204 66.2831 183.859 65.3145C181.565 64.3458 179.602 62.9439 177.971 61.1086C176.39 59.2733 175.167 57.0556 174.3 54.4556C173.433 51.8556 173 48.9497 173 45.738C173 42.5262 173.433 39.6203 174.3 37.0203C175.167 34.4203 176.39 32.2281 177.971 30.4438C179.602 28.6085 181.565 27.2066 183.859 26.2379C186.204 25.2693 188.855 24.785 191.812 24.785C194.769 24.785 197.394 25.2693 199.688 26.2379C202.033 27.2066 203.996 28.6085 205.577 30.4438C207.208 32.2281 208.457 34.4203 209.324 37.0203C210.19 39.6203 210.624 42.5262 210.624 45.738C210.624 48.9497 210.19 51.8556 209.324 54.4556C208.457 57.0556 207.208 59.2733 205.577 61.1086C203.996 62.9439 202.033 64.3458 199.688 65.3145C197.394 66.2831 194.769 66.7674 191.812 66.7674ZM191.812 57.8203C194.055 57.8203 195.788 57.1321 197.012 55.7556C198.235 54.3791 198.847 52.4164 198.847 49.8674V41.685C198.847 39.136 198.235 37.1732 197.012 35.7968C195.788 34.4203 194.055 33.7321 191.812 33.7321C189.569 33.7321 187.835 34.4203 186.612 35.7968C185.388 37.1732 184.776 39.136 184.776 41.685V49.8674C184.776 52.4164 185.388 54.3791 186.612 55.7556C187.835 57.1321 189.569 57.8203 191.812 57.8203Z" fill="#0D3B66"/>
<path d="M212.581 34.4968H206.922V25.7026H212.581V20.9615C212.581 17.0869 213.6 14.1811 215.64 12.2438C217.679 10.2556 220.661 9.26145 224.587 9.26145H231.928V18.0556H223.898V25.7026H231.928V34.4968H223.898V65.8498H212.581V34.4968Z" fill="#0D3B66"/>
<path d="M230.576 65.8498V25.7026H241.894V34.4203H242.276C242.48 33.2987 242.837 32.2281 243.347 31.2085C243.857 30.1379 244.52 29.1948 245.335 28.3791C246.202 27.5634 247.222 26.9262 248.394 26.4673C249.567 25.9575 250.943 25.7026 252.524 25.7026H254.512V36.2556H251.682C248.369 36.2556 245.896 36.6889 244.265 37.5556C242.684 38.4223 241.894 40.0282 241.894 42.3733V65.8498H230.576Z" fill="#0D3B66"/>
<path d="M277.552 59.1203H277.17C276.813 60.1399 276.329 61.1086 275.717 62.0262C275.156 62.9439 274.417 63.7596 273.499 64.4733C272.582 65.187 271.485 65.7478 270.211 66.1556C268.987 66.5635 267.56 66.7674 265.929 66.7674C261.799 66.7674 258.664 65.4164 256.523 62.7145C254.433 59.9615 253.387 56.036 253.387 50.938V25.7026H264.705V49.9438C264.705 52.3909 265.138 54.2772 266.005 55.6027C266.872 56.9282 268.35 57.5909 270.44 57.5909C271.307 57.5909 272.174 57.4635 273.04 57.2086C273.907 56.9537 274.672 56.5968 275.335 56.138C275.997 55.6282 276.533 55.0164 276.94 54.3027C277.348 53.589 277.552 52.7478 277.552 51.7791V25.7026H288.87V65.8498H277.552V59.1203Z" fill="#0D3B66"/>
<path d="M302.994 65.8498C299.12 65.8498 296.265 64.9066 294.429 63.0203C292.645 61.1341 291.753 58.4066 291.753 54.838V9.26145H303.071V57.0556H308.118V65.8498H302.994Z" fill="#0D3B66"/>
<path d="M324.003 66.7674C320.944 66.7674 318.217 66.2831 315.821 65.3145C313.425 64.2948 311.386 62.8929 309.703 61.1086C308.072 59.2733 306.823 57.0556 305.956 54.4556C305.141 51.8556 304.733 48.9497 304.733 45.738C304.733 42.5772 305.141 39.7223 305.956 37.1732C306.772 34.5732 307.97 32.3556 309.55 30.5203C311.182 28.685 313.17 27.283 315.515 26.3144C317.86 25.2948 320.537 24.785 323.545 24.785C326.858 24.785 329.688 25.3458 332.033 26.4673C334.429 27.5889 336.366 29.0928 337.845 30.9791C339.374 32.8654 340.47 35.0576 341.133 37.5556C341.846 40.0027 342.203 42.5772 342.203 45.2791V48.6438H316.433V49.2556C316.433 51.9066 317.146 54.0223 318.574 55.6027C320.001 57.1321 322.244 57.8968 325.303 57.8968C327.648 57.8968 329.56 57.438 331.039 56.5203C332.517 55.5517 333.894 54.4046 335.168 53.0791L340.827 60.1144C339.043 62.2046 336.697 63.836 333.792 65.0086C330.937 66.1811 327.674 66.7674 324.003 66.7674ZM323.774 33.1203C321.48 33.1203 319.67 33.885 318.344 35.4144C317.07 36.8929 316.433 38.8811 316.433 41.3791V41.9909H330.503V41.3027C330.503 38.8556 329.943 36.8929 328.821 35.4144C327.75 33.885 326.068 33.1203 323.774 33.1203Z" fill="#0D3B66"/>
<path d="M356.161 66.7674C352.287 66.7674 349.024 66.1556 346.373 64.9321C343.722 63.6576 341.351 61.8733 339.261 59.5792L345.914 52.8497C347.341 54.4301 348.922 55.6791 350.655 56.5968C352.388 57.5144 354.351 57.9733 356.543 57.9733C358.787 57.9733 360.341 57.6419 361.208 56.9792C362.075 56.2654 362.508 55.3223 362.508 54.1497C362.508 52.2635 361.157 51.1419 358.455 50.785L354.096 50.2497C345.073 49.1282 340.561 44.9987 340.561 37.8615C340.561 35.9242 340.918 34.1654 341.632 32.585C342.396 30.9536 343.441 29.5772 344.767 28.4556C346.143 27.283 347.775 26.3909 349.661 25.7791C351.598 25.1164 353.765 24.785 356.161 24.785C358.251 24.785 360.087 24.9379 361.667 25.2438C363.298 25.4987 364.726 25.9066 365.949 26.4673C367.224 26.9772 368.371 27.6399 369.39 28.4556C370.461 29.2203 371.506 30.087 372.526 31.0556L366.026 37.7085C364.751 36.434 363.298 35.4399 361.667 34.7262C360.087 33.9615 358.455 33.5791 356.773 33.5791C354.836 33.5791 353.459 33.885 352.643 34.4968C351.828 35.1085 351.42 35.9242 351.42 36.9438C351.42 38.0144 351.7 38.8556 352.261 39.4674C352.873 40.0281 353.994 40.436 355.626 40.6909L360.138 41.3027C368.957 42.4752 373.367 46.5027 373.367 53.385C373.367 55.3223 372.959 57.1066 372.143 58.738C371.328 60.3694 370.155 61.7968 368.626 63.0203C367.147 64.1929 365.338 65.1105 363.196 65.7733C361.106 66.436 358.761 66.7674 356.161 66.7674Z" fill="#0D3B66"/>
</svg>
