<svg width="115" height="34" viewBox="0 0 115 34" fill="none" xmlns="http://www.w3.org/2000/svg">
<rect x="96.1052" y="6.97974" width="11.8117" height="13.6014" fill="#F7F0E2"/>
<path d="M104.194 15.4567C104.66 15.4567 105.038 15.0788 105.038 14.6127C105.038 14.1466 104.66 13.7688 104.194 13.7688C103.728 13.7688 103.35 14.1466 103.35 14.6127C103.35 15.0788 103.728 15.4567 104.194 15.4567Z" fill="#0D3B66"/>
<path d="M101.541 12.5182H100.302V8.8116H101.541C101.877 8.8116 102.167 8.93323 102.41 9.17647C102.657 9.41586 102.781 9.70351 102.781 10.0394V11.2788C102.781 11.6147 102.657 11.9062 102.41 12.1534C102.167 12.3966 101.877 12.5182 101.541 12.5182Z" fill="#0D3B66"/>
<path fill-rule="evenodd" clip-rule="evenodd" d="M88.9899 14.1751C87.5397 9.41337 88.8429 0 102.151 0L101.374 0.0275486C114.681 0.0275486 115.984 9.44091 114.534 14.2027C112.887 19.6119 102.938 32.9578 102.938 32.9578L100.586 32.9303C100.586 32.9303 90.637 19.5843 88.9899 14.1751ZM104.925 12.5015C105.14 12.1358 105.248 11.7282 105.248 11.2788V10.0394C105.248 9.3676 105.005 8.78844 104.518 8.30194C104.036 7.81545 103.457 7.5722 102.781 7.5722H97.8348V18.6921H100.302V13.746H102.085C101.992 14.1068 102.02 14.4728 102.104 14.7457C102.377 15.6321 104.026 17.8193 104.026 17.8193L104.416 17.8238C104.416 17.8238 106.065 15.6366 106.338 14.7502C106.547 14.0721 106.411 12.8185 104.925 12.5015Z" fill="#0D3B66"/>
<path d="M9.3788 33.2875C7.90463 33.2875 6.58295 33.0461 5.41378 32.5632C4.27002 32.0802 3.29148 31.3813 2.47814 30.4663C1.69022 29.5513 1.08021 28.4456 0.648129 27.1494C0.216043 25.8531 0 24.4044 0 22.8031C0 21.2019 0.216043 19.7531 0.648129 18.4568C1.08021 17.1606 1.69022 16.0677 2.47814 15.1781C3.29148 14.2631 4.27002 13.5641 5.41378 13.0812C6.58295 12.5983 7.90463 12.3568 9.3788 12.3568C10.853 12.3568 12.1619 12.5983 13.3057 13.0812C14.4749 13.5641 15.4534 14.2631 16.2413 15.1781C17.0547 16.0677 17.6774 17.1606 18.1095 18.4568C18.5416 19.7531 18.7576 21.2019 18.7576 22.8031C18.7576 24.4044 18.5416 25.8531 18.1095 27.1494C17.6774 28.4456 17.0547 29.5513 16.2413 30.4663C15.4534 31.3813 14.4749 32.0802 13.3057 32.5632C12.1619 33.0461 10.853 33.2875 9.3788 33.2875ZM9.3788 28.8269C10.4971 28.8269 11.3613 28.4838 11.9713 27.7975C12.5813 27.1113 12.8863 26.1327 12.8863 24.8619V20.7825C12.8863 19.5116 12.5813 18.5331 11.9713 17.8468C11.3613 17.1606 10.4971 16.8175 9.3788 16.8175C8.26046 16.8175 7.39629 17.1606 6.78629 17.8468C6.17628 18.5331 5.87128 19.5116 5.87128 20.7825V24.8619C5.87128 26.1327 6.17628 27.1113 6.78629 27.7975C7.39629 28.4838 8.26046 28.8269 9.3788 28.8269Z" fill="#0D3B66"/>
<path d="M19.7334 17.1987H16.9121V12.8143H19.7334V10.4505C19.7334 8.51887 20.2417 7.07011 21.2584 6.10427C22.2751 5.11301 23.7619 4.61739 25.719 4.61739H29.379V9.00179H25.3759V12.8143H29.379V17.1987H25.3759V32.83H19.7334V17.1987Z" fill="#0D3B66"/>
<path d="M28.7053 32.83V12.8143H34.3478V17.1606H34.5385C34.6401 16.6014 34.818 16.0677 35.0722 15.5593C35.3264 15.0256 35.6568 14.5554 36.0635 14.1487C36.4956 13.742 37.0039 13.4243 37.5885 13.1956C38.1731 12.9414 38.8593 12.8143 39.6472 12.8143H40.6385V18.0756H39.2279C37.5758 18.0756 36.3431 18.2916 35.5297 18.7237C34.7418 19.1558 34.3478 19.9564 34.3478 21.1256V32.83H28.7053Z" fill="#0D3B66"/>
<path d="M52.1255 29.475H51.9349C51.757 29.9834 51.5155 30.4663 51.2105 30.9238C50.9309 31.3813 50.5624 31.788 50.1049 32.1438C49.6474 32.4996 49.1009 32.7792 48.4655 32.9825C47.8555 33.1859 47.1438 33.2875 46.3305 33.2875C44.2717 33.2875 42.7086 32.614 41.6411 31.2669C40.599 29.8944 40.0779 27.9373 40.0779 25.3956V12.8143H45.7205V24.9C45.7205 26.12 45.9365 27.0604 46.3686 27.7213C46.8007 28.3821 47.5378 28.7125 48.5799 28.7125C49.0119 28.7125 49.444 28.649 49.8761 28.5219C50.3082 28.3948 50.6895 28.2169 51.0199 27.9881C51.3503 27.734 51.6172 27.429 51.8205 27.0731C52.0238 26.7173 52.1255 26.2979 52.1255 25.815V12.8143H57.768V32.83H52.1255V29.475Z" fill="#0D3B66"/>
<path d="M64.8099 32.83C62.8782 32.83 61.4549 32.3598 60.5399 31.4194C59.6503 30.479 59.2055 29.1192 59.2055 27.34V4.61739H64.848V28.4456H67.3643V32.83H64.8099Z" fill="#0D3B66"/>
<path d="M75.2842 33.2875C73.7592 33.2875 72.3994 33.0461 71.2048 32.5632C70.0102 32.0548 68.9935 31.3559 68.1548 30.4663C67.3414 29.5513 66.7187 28.4456 66.2866 27.1494C65.88 25.8531 65.6766 24.4044 65.6766 22.8031C65.6766 21.2273 65.88 19.8039 66.2866 18.5331C66.6933 17.2368 67.2906 16.1312 68.0785 15.2162C68.8919 14.3012 69.8831 13.6022 71.0523 13.1193C72.2215 12.611 73.5558 12.3568 75.0554 12.3568C76.7075 12.3568 78.1182 12.6364 79.2873 13.1956C80.4819 13.7547 81.4478 14.5045 82.1848 15.4449C82.9474 16.3854 83.4938 17.4783 83.8242 18.7237C84.1801 19.9437 84.358 21.2273 84.358 22.5744V24.2519H71.5098V24.5569C71.5098 25.8785 71.8656 26.9333 72.5773 27.7213C73.289 28.4838 74.4073 28.865 75.9323 28.865C77.1015 28.865 78.0546 28.6363 78.7917 28.1788C79.5288 27.6958 80.215 27.124 80.8505 26.4631L83.6717 29.9707C82.7821 31.0127 81.613 31.8261 80.1642 32.4107C78.7409 32.9953 77.1142 33.2875 75.2842 33.2875ZM75.1698 16.5125C74.0261 16.5125 73.1238 16.8937 72.4629 17.6562C71.8275 18.3933 71.5098 19.3846 71.5098 20.63V20.935H78.5248V20.5919C78.5248 19.3718 78.2452 18.3933 77.6861 17.6562C77.1523 16.8937 76.3136 16.5125 75.1698 16.5125Z" fill="#0D3B66"/>
<path d="M91.3167 33.2875C89.385 33.2875 87.7584 32.9825 86.4367 32.3725C85.115 31.7371 83.9331 30.8475 82.8911 29.7038L86.2079 26.3488C86.9196 27.1367 87.7075 27.7594 88.5717 28.2169C89.4359 28.6744 90.4144 28.9031 91.5074 28.9031C92.6257 28.9031 93.4009 28.7379 93.833 28.4075C94.2651 28.0517 94.4811 27.5815 94.4811 26.9969C94.4811 26.0565 93.8076 25.4973 92.4605 25.3194L90.2873 25.0525C85.7886 24.4933 83.5392 22.4346 83.5392 18.8762C83.5392 17.9104 83.7171 17.0335 84.0729 16.2456C84.4542 15.4322 84.9752 14.746 85.6361 14.1868C86.3223 13.6022 87.1357 13.1574 88.0761 12.8524C89.0419 12.522 90.1221 12.3568 91.3167 12.3568C92.3588 12.3568 93.2738 12.4331 94.0617 12.5856C94.8751 12.7126 95.5867 12.916 96.1968 13.1956C96.8322 13.4497 97.4041 13.7801 97.9124 14.1868C98.4461 14.5681 98.9672 15.0002 99.4755 15.4831L96.2349 18.8C95.5995 18.1645 94.8751 17.6689 94.0617 17.3131C93.2738 16.9318 92.4605 16.7412 91.6217 16.7412C90.6559 16.7412 89.9696 16.8937 89.563 17.1987C89.1563 17.5037 88.953 17.9104 88.953 18.4187C88.953 18.9525 89.0928 19.3718 89.3723 19.6768C89.6773 19.9564 90.2365 20.1598 91.0498 20.2868L93.2992 20.5919C97.6963 21.1764 99.8949 23.1844 99.8949 26.6156C99.8949 27.5815 99.6916 28.4711 99.2849 29.2844C98.8782 30.0977 98.2936 30.8094 97.5311 31.4194C96.7941 32.004 95.8918 32.4615 94.8242 32.7919C93.7822 33.1223 92.613 33.2875 91.3167 33.2875Z" fill="#0D3B66"/>
</svg>
