<svg width="406" height="90" viewBox="0 0 406 90" fill="none" xmlns="http://www.w3.org/2000/svg">
<path d="M25.3468 74.3655C21.4641 74.3655 17.9643 73.7636 14.8472 72.5598C11.7301 71.3013 9.07783 69.4683 6.8904 67.0608C4.70297 64.5985 3.00771 61.5617 1.80463 57.9504C0.601543 54.2843 0 50.0164 0 45.1466C0 40.3315 0.601543 36.0636 1.80463 32.3428C3.00771 28.5673 4.70297 25.4211 6.8904 22.9041C9.07783 20.3324 11.7301 18.39 14.8472 17.0768C17.9643 15.7636 21.4641 15.1069 25.3468 15.1069C30.6513 15.1069 35.0262 16.2013 38.4714 18.39C41.9166 20.5239 44.6782 23.9164 46.7563 28.5673L36.0105 34.1485C35.2449 31.7409 34.0418 29.8258 32.4013 28.4032C30.8154 26.9258 28.4639 26.1871 25.3468 26.1871C21.6829 26.1871 18.7299 27.3909 16.4877 29.7985C14.3003 32.1513 13.2066 35.5985 13.2066 40.14V49.3325C13.2066 53.874 14.3003 57.3485 16.4877 59.756C18.7299 62.1089 21.6829 63.2853 25.3468 63.2853C28.4092 63.2853 30.8427 62.4645 32.6474 60.823C34.5067 59.1268 35.8738 57.1023 36.7488 54.7494L46.9203 60.6589C44.7876 65.0362 41.9713 68.4287 38.4714 70.8362C35.0262 73.1891 30.6513 74.3655 25.3468 74.3655Z" fill="#0D3B66"/>
<path d="M46.7864 12.6447H58.9266V37.5956H59.4188C60.1844 35.3522 61.5242 33.4098 63.4382 31.7683C65.3522 30.1268 68.0044 29.306 71.395 29.306C75.8245 29.306 79.1603 30.7834 81.4024 33.7381C83.6992 36.6928 84.8476 40.906 84.8476 46.3777V73.3806H72.7074V47.3626C72.7074 44.5721 72.2699 42.5202 71.395 41.207C70.52 39.839 68.9614 39.1551 66.7193 39.1551C65.735 39.1551 64.778 39.2919 63.8483 39.5655C62.9187 39.7843 62.071 40.1673 61.3054 40.7145C60.5945 41.2617 60.0203 41.9457 59.5828 42.7664C59.1454 43.5324 58.9266 44.4353 58.9266 45.4749V73.3806H46.7864V12.6447Z" fill="#0D3B66"/>
<path d="M105.412 74.3655C102.131 74.3655 99.2056 73.8457 96.6354 72.8061C94.0652 71.7117 91.8777 70.207 90.0731 68.2919C88.3232 66.3221 86.9834 63.9419 86.0537 61.1513C85.1787 58.3608 84.7412 55.2419 84.7412 51.7947C84.7412 48.4023 85.1787 45.3381 86.0537 42.6023C86.9287 39.8117 88.2138 37.4315 89.909 35.4617C91.659 33.4919 93.7917 31.9872 96.3073 30.9475C98.8228 29.8532 101.694 29.306 104.92 29.306C108.475 29.306 111.51 29.9079 114.025 31.1117C116.596 32.3155 118.674 33.9296 120.26 35.9541C121.9 37.9787 123.076 40.3315 123.787 43.0126C124.552 45.639 124.935 48.4023 124.935 51.3023V54.9136H97.2916V55.5702C97.2916 58.4155 98.0572 60.6862 99.5884 62.3825C101.12 64.024 103.526 64.8447 106.807 64.8447C109.322 64.8447 111.373 64.3523 112.959 63.3674C114.545 62.3277 116.021 61.0966 117.389 59.674L123.459 67.2249C121.545 69.4683 119.029 71.2193 115.912 72.4778C112.85 73.7362 109.35 74.3655 105.412 74.3655ZM105.166 38.2523C102.705 38.2523 100.764 39.073 99.3423 40.7145C97.9752 42.3013 97.2916 44.4353 97.2916 47.1164V47.773H112.385V47.0343C112.385 44.4079 111.783 42.3013 110.58 40.7145C109.432 39.073 107.627 38.2523 105.166 38.2523Z" fill="#0D3B66"/>
<path d="M142.696 74.3655C139.47 74.3655 136.599 73.8457 134.083 72.8061C131.568 71.7117 129.462 70.207 127.767 68.2919C126.072 66.3221 124.787 63.9419 123.912 61.1513C123.037 58.3608 122.599 55.2419 122.599 51.7947C122.599 48.3475 123.037 45.256 123.912 42.5202C124.787 39.7296 126.072 37.3494 127.767 35.3796C129.462 33.4098 131.568 31.9051 134.083 30.8655C136.599 29.8258 139.47 29.306 142.696 29.306C147.071 29.306 150.708 30.2909 153.606 32.2607C156.559 34.2305 158.665 36.9938 159.922 40.5504L150.079 44.8183C149.696 43.1768 148.903 41.7815 147.7 40.6324C146.497 39.4834 144.829 38.9089 142.696 38.9089C140.235 38.9089 138.376 39.7296 137.118 41.3711C135.861 42.9579 135.232 45.1192 135.232 47.8551V55.8985C135.232 58.6343 135.861 60.7957 137.118 62.3825C138.376 63.9693 140.235 64.7626 142.696 64.7626C144.884 64.7626 146.606 64.1881 147.864 63.0391C149.177 61.8353 150.134 60.2759 150.735 58.3608L160.168 62.4645C158.747 66.5683 156.532 69.5777 153.524 71.4928C150.571 73.4079 146.962 74.3655 142.696 74.3655Z" fill="#0D3B66"/>
<path d="M159.48 12.6447H171.62V48.5117H172.112L177.444 40.5504L186.057 30.2909H199.509L185.154 46.7881L201.15 73.3806H186.713L177.034 55.1598L171.62 61.2334V73.3806H159.48V12.6447Z" fill="#0D3B66"/>
<path d="M198.619 30.2909H210.76V37.5136H211.17C211.771 35.106 213.138 33.1362 215.271 31.6041C217.459 30.0721 219.947 29.306 222.736 29.306C228.204 29.306 232.333 31.2211 235.122 35.0513C237.911 38.8815 239.305 44.4626 239.305 51.7947C239.305 59.1268 237.911 64.7353 235.122 68.6202C232.333 72.4504 228.204 74.3655 222.736 74.3655C221.314 74.3655 219.974 74.1466 218.716 73.7089C217.459 73.3259 216.31 72.7787 215.271 72.0674C214.287 71.3013 213.439 70.4259 212.728 69.441C212.017 68.4013 211.498 67.307 211.17 66.1579H210.76V89.7957H198.619V30.2909ZM218.716 64.5164C221.013 64.5164 222.9 63.723 224.376 62.1362C225.907 60.4947 226.673 58.306 226.673 55.5702V48.1013C226.673 45.3655 225.907 43.2041 224.376 41.6173C222.9 39.9758 221.013 39.1551 218.716 39.1551C216.419 39.1551 214.505 39.7296 212.974 40.8787C211.498 41.973 210.76 43.5051 210.76 45.4749V58.1966C210.76 60.1664 211.498 61.7259 212.974 62.8749C214.505 63.9693 216.419 64.5164 218.716 64.5164Z" fill="#0D3B66"/>
<path d="M257.795 74.3655C254.623 74.3655 251.779 73.8457 249.264 72.8061C246.803 71.7664 244.697 70.2617 242.947 68.2919C241.252 66.3221 239.94 63.9419 239.01 61.1513C238.08 58.3608 237.616 55.2419 237.616 51.7947C237.616 48.3475 238.08 45.2287 239.01 42.4381C239.94 39.6475 241.252 37.2947 242.947 35.3796C244.697 33.4098 246.803 31.9051 249.264 30.8655C251.779 29.8258 254.623 29.306 257.795 29.306C260.966 29.306 263.783 29.8258 266.243 30.8655C268.759 31.9051 270.864 33.4098 272.56 35.3796C274.31 37.2947 275.649 39.6475 276.579 42.4381C277.509 45.2287 277.974 48.3475 277.974 51.7947C277.974 55.2419 277.509 58.3608 276.579 61.1513C275.649 63.9419 274.31 66.3221 272.56 68.2919C270.864 70.2617 268.759 71.7664 266.243 72.8061C263.783 73.8457 260.966 74.3655 257.795 74.3655ZM257.795 64.7626C260.201 64.7626 262.06 64.024 263.373 62.5466C264.685 61.0693 265.341 58.9626 265.341 56.2268V47.4447C265.341 44.7089 264.685 42.6023 263.373 41.1249C262.06 39.6475 260.201 38.9089 257.795 38.9089C255.388 38.9089 253.529 39.6475 252.217 41.1249C250.904 42.6023 250.248 44.7089 250.248 47.4447V56.2268C250.248 58.9626 250.904 61.0693 252.217 62.5466C253.529 64.024 255.388 64.7626 257.795 64.7626Z" fill="#0D3B66"/>
<path d="M284.491 25.6947C282.03 25.6947 280.226 25.1475 279.077 24.0532C277.983 22.9041 277.437 21.4541 277.437 19.7032V17.8975C277.437 16.1466 277.983 14.7239 279.077 13.6296C280.226 12.4805 282.03 11.906 284.491 11.906C286.952 11.906 288.729 12.4805 289.823 13.6296C290.971 14.7239 291.545 16.1466 291.545 17.8975V19.7032C291.545 21.4541 290.971 22.9041 289.823 24.0532C288.729 25.1475 286.952 25.6947 284.491 25.6947ZM278.421 30.2909H290.561V73.3806H278.421V30.2909Z" fill="#0D3B66"/>
<path d="M293.689 73.3806V30.2909H305.829V37.5956H306.321C307.087 35.3522 308.427 33.4098 310.341 31.7683C312.255 30.1268 314.907 29.306 318.298 29.306C322.727 29.306 326.063 30.7834 328.305 33.7381C330.602 36.6928 331.75 40.906 331.75 46.3777V73.3806H319.61V47.3626C319.61 44.5721 319.173 42.5202 318.298 41.207C317.423 39.839 315.864 39.1551 313.622 39.1551C312.638 39.1551 311.681 39.2919 310.751 39.5655C309.821 39.7843 308.974 40.1673 308.208 40.7145C307.497 41.2617 306.923 41.9457 306.486 42.7664C306.048 43.5324 305.829 44.4353 305.829 45.4749V73.3806H293.689Z" fill="#0D3B66"/>
<path d="M349.444 73.3806C345.233 73.3806 342.034 72.3136 339.847 70.1796C337.714 68.0457 336.648 64.9268 336.648 60.823V39.7296H330.578V30.2909H333.613C335.253 30.2909 336.374 29.9079 336.976 29.1419C337.577 28.3211 337.878 27.1721 337.878 25.6947V18.6362H348.788V30.2909H357.319V39.7296H348.788V63.9419H356.663V73.3806H349.444Z" fill="#0D3B66"/>
<path d="M376.231 -1.30115e-06C345.398 -1.30453e-06 342.379 21.7539 345.739 32.7582C349.555 45.2586 372.605 76.1005 372.605 76.1005L378.053 76.1641C378.053 76.1641 401.103 45.3222 404.919 32.8218C408.278 21.8176 405.259 0.0636625 374.43 0.0636625" fill="#0D3B66"/>
<path d="M381.176 28.7082C376.065 28.7082 375.565 32.2733 376.121 34.0766C376.754 36.1252 380.574 41.1796 380.574 41.1796L381.478 41.19C381.478 41.19 385.298 36.1357 385.931 34.0871C386.488 32.2837 385.987 28.7186 380.877 28.7186" fill="white"/>
<path d="M381.026 35.7292C382.106 35.7292 382.981 34.8561 382.981 33.779C382.981 32.7018 382.106 31.8287 381.026 31.8287C379.946 31.8287 379.071 32.7018 379.071 33.779C379.071 34.8561 379.946 35.7292 381.026 35.7292Z" fill="#0D3B66"/>
<path d="M366.23 43.1966L366.23 17.4991L377.689 17.4991C379.254 17.4991 380.596 18.0612 381.714 19.1855C382.841 20.3097 383.405 21.6481 383.405 23.2007L383.405 26.0649C383.405 27.6264 382.841 28.9693 381.714 30.0935C380.596 31.2089 379.254 31.7665 377.689 31.7665L371.946 31.7665L371.946 43.1966L366.23 43.1966ZM371.946 28.9291L374.818 28.9291C375.596 28.9291 376.267 28.648 376.83 28.0859C377.403 27.5148 377.689 26.8412 377.689 26.0649L377.689 23.2007C377.689 22.4244 377.403 21.7597 376.83 21.2065C376.267 20.6443 375.596 20.3633 374.818 20.3633L371.946 20.3633L371.946 28.9291Z" fill="white"/>
</svg>
