<svg width="406" height="90" viewBox="0 0 406 90" fill="none" xmlns="http://www.w3.org/2000/svg">
<path d="M25.3468 74.3652C21.4641 74.3652 17.9643 73.7634 14.8472 72.5596C11.7301 71.3011 9.07783 69.4681 6.8904 67.0605C4.70297 64.5983 3.00771 61.5615 1.80463 57.9501C0.601543 54.2841 0 50.0162 0 45.1464C0 40.3313 0.601543 36.0633 1.80463 32.3426C3.00771 28.5671 4.70297 25.4209 6.8904 22.9039C9.07783 20.3322 11.7301 18.3897 14.8472 17.0765C17.9643 15.7633 21.4641 15.1067 25.3468 15.1067C30.6513 15.1067 35.0262 16.201 38.4714 18.3897C41.9166 20.5237 44.6782 23.9161 46.7563 28.5671L36.0105 34.1482C35.2449 31.7407 34.0418 29.8256 32.4013 28.4029C30.8154 26.9256 28.4639 26.1869 25.3468 26.1869C21.6829 26.1869 18.7299 27.3907 16.4877 29.7982C14.3003 32.1511 13.2066 35.5982 13.2066 40.1397V49.3322C13.2066 53.8737 14.3003 57.3483 16.4877 59.7558C18.7299 62.1086 21.6829 63.285 25.3468 63.285C28.4092 63.285 30.8427 62.4643 32.6474 60.8228C34.5067 59.1266 35.8738 57.102 36.7488 54.7492L46.9203 60.6586C44.7876 65.036 41.9713 68.4284 38.4714 70.836C35.0262 73.1888 30.6513 74.3652 25.3468 74.3652Z" fill="#0D3B66"/>
<path d="M46.7864 12.6444H58.9266V37.5954H59.4188C60.1844 35.352 61.5242 33.4096 63.4382 31.768C65.3522 30.1265 68.0044 29.3058 71.395 29.3058C75.8245 29.3058 79.1603 30.7831 81.4024 33.7379C83.6992 36.6926 84.8476 40.9058 84.8476 46.3775V73.3803H72.7074V47.3624C72.7074 44.5718 72.2699 42.5199 71.395 41.2067C70.52 39.8388 68.9614 39.1548 66.7193 39.1548C65.735 39.1548 64.778 39.2916 63.8483 39.5652C62.9187 39.7841 62.071 40.1671 61.3054 40.7143C60.5945 41.2614 60.0203 41.9454 59.5828 42.7662C59.1454 43.5322 58.9266 44.435 58.9266 45.4747V73.3803H46.7864V12.6444Z" fill="#0D3B66"/>
<path d="M105.412 74.3652C102.131 74.3652 99.2056 73.8454 96.6354 72.8058C94.0652 71.7115 91.8777 70.2068 90.0731 68.2917C88.3232 66.3218 86.9834 63.9417 86.0537 61.1511C85.1787 58.3605 84.7412 55.2416 84.7412 51.7945C84.7412 48.402 85.1787 45.3379 86.0537 42.602C86.9287 39.8114 88.2138 37.4313 89.909 35.4614C91.659 33.4916 93.7917 31.9869 96.3073 30.9473C98.8228 29.8529 101.694 29.3058 104.92 29.3058C108.475 29.3058 111.51 29.9077 114.025 31.1114C116.596 32.3152 118.674 33.9294 120.26 35.9539C121.9 37.9784 123.076 40.3313 123.787 43.0124C124.552 45.6388 124.935 48.402 124.935 51.302V54.9133H97.2916V55.5699C97.2916 58.4152 98.0572 60.686 99.5884 62.3822C101.12 64.0237 103.526 64.8445 106.807 64.8445C109.322 64.8445 111.373 64.352 112.959 63.3671C114.545 62.3275 116.021 61.0964 117.389 59.6737L123.459 67.2247C121.545 69.4681 119.029 71.219 115.912 72.4775C112.85 73.736 109.35 74.3652 105.412 74.3652ZM105.166 38.252C102.705 38.252 100.764 39.0728 99.3423 40.7143C97.9752 42.3011 97.2916 44.435 97.2916 47.1162V47.7728H112.385V47.0341C112.385 44.4077 111.783 42.3011 110.58 40.7143C109.432 39.0728 107.627 38.252 105.166 38.252Z" fill="#0D3B66"/>
<path d="M142.696 74.3652C139.47 74.3652 136.599 73.8454 134.083 72.8058C131.568 71.7115 129.462 70.2068 127.767 68.2917C126.072 66.3218 124.787 63.9417 123.912 61.1511C123.037 58.3605 122.599 55.2416 122.599 51.7945C122.599 48.3473 123.037 45.2558 123.912 42.5199C124.787 39.7294 126.072 37.3492 127.767 35.3794C129.462 33.4096 131.568 31.9048 134.083 30.8652C136.599 29.8256 139.47 29.3058 142.696 29.3058C147.071 29.3058 150.708 30.2907 153.606 32.2605C156.559 34.2303 158.665 36.9935 159.922 40.5501L150.079 44.8181C149.696 43.1765 148.903 41.7813 147.7 40.6322C146.497 39.4831 144.829 38.9086 142.696 38.9086C140.235 38.9086 138.376 39.7294 137.118 41.3709C135.861 42.9577 135.232 45.119 135.232 47.8548V55.8982C135.232 58.6341 135.861 60.7954 137.118 62.3822C138.376 63.969 140.235 64.7624 142.696 64.7624C144.884 64.7624 146.606 64.1879 147.864 63.0388C149.177 61.835 150.134 60.2756 150.735 58.3605L160.168 62.4643C158.747 66.5681 156.532 69.5775 153.524 71.4926C150.571 73.4077 146.962 74.3652 142.696 74.3652Z" fill="#0D3B66"/>
<path d="M159.48 12.6444H171.62V48.5115H172.112L177.444 40.5501L186.057 30.2907H199.509L185.154 46.7879L201.15 73.3803H186.713L177.034 55.1596L171.62 61.2332V73.3803H159.48V12.6444Z" fill="#0D3B66"/>
<path d="M198.619 30.2907H210.76V37.5133H211.17C211.771 35.1058 213.138 33.136 215.271 31.6039C217.459 30.0718 219.947 29.3058 222.736 29.3058C228.204 29.3058 232.333 31.2209 235.122 35.0511C237.911 38.8813 239.305 44.4624 239.305 51.7945C239.305 59.1266 237.911 64.735 235.122 68.62C232.333 72.4501 228.204 74.3652 222.736 74.3652C221.314 74.3652 219.974 74.1464 218.716 73.7086C217.459 73.3256 216.31 72.7785 215.271 72.0671C214.287 71.3011 213.439 70.4256 212.728 69.4407C212.017 68.4011 211.498 67.3067 211.17 66.1577H210.76V89.7954H198.619V30.2907ZM218.716 64.5162C221.013 64.5162 222.9 63.7228 224.376 62.136C225.907 60.4945 226.673 58.3058 226.673 55.5699V48.1011C226.673 45.3652 225.907 43.2039 224.376 41.6171C222.9 39.9756 221.013 39.1548 218.716 39.1548C216.419 39.1548 214.505 39.7294 212.974 40.8784C211.498 41.9728 210.76 43.5048 210.76 45.4747V58.1964C210.76 60.1662 211.498 61.7256 212.974 62.8747C214.505 63.969 216.419 64.5162 218.716 64.5162Z" fill="#0D3B66"/>
<path d="M257.795 74.3652C254.623 74.3652 251.779 73.8454 249.264 72.8058C246.803 71.7662 244.697 70.2615 242.947 68.2917C241.252 66.3218 239.94 63.9417 239.01 61.1511C238.08 58.3605 237.616 55.2416 237.616 51.7945C237.616 48.3473 238.08 45.2284 239.01 42.4379C239.94 39.6473 241.252 37.2945 242.947 35.3794C244.697 33.4096 246.803 31.9048 249.264 30.8652C251.779 29.8256 254.623 29.3058 257.795 29.3058C260.966 29.3058 263.783 29.8256 266.244 30.8652C268.759 31.9048 270.864 33.4096 272.56 35.3794C274.31 37.2945 275.649 39.6473 276.579 42.4379C277.509 45.2284 277.974 48.3473 277.974 51.7945C277.974 55.2416 277.509 58.3605 276.579 61.1511C275.649 63.9417 274.31 66.3218 272.56 68.2917C270.864 70.2615 268.759 71.7662 266.244 72.8058C263.783 73.8454 260.966 74.3652 257.795 74.3652ZM257.795 64.7624C260.201 64.7624 262.06 64.0237 263.373 62.5464C264.685 61.069 265.341 58.9624 265.341 56.2266V47.4445C265.341 44.7086 264.685 42.602 263.373 41.1247C262.06 39.6473 260.201 38.9086 257.795 38.9086C255.388 38.9086 253.529 39.6473 252.217 41.1247C250.904 42.602 250.248 44.7086 250.248 47.4445V56.2266C250.248 58.9624 250.904 61.069 252.217 62.5464C253.529 64.0237 255.388 64.7624 257.795 64.7624Z" fill="#0D3B66"/>
<path d="M284.491 25.6945C282.03 25.6945 280.226 25.1473 279.077 24.0529C277.983 22.9039 277.437 21.4539 277.437 19.7029V17.8973C277.437 16.1463 277.983 14.7237 279.077 13.6293C280.226 12.4803 282.03 11.9058 284.491 11.9058C286.952 11.9058 288.729 12.4803 289.823 13.6293C290.971 14.7237 291.545 16.1463 291.545 17.8973V19.7029C291.545 21.4539 290.971 22.9039 289.823 24.0529C288.729 25.1473 286.952 25.6945 284.491 25.6945ZM278.421 30.2907H290.561V73.3803H278.421V30.2907Z" fill="#0D3B66"/>
<path d="M293.689 73.3803V30.2907H305.829V37.5954H306.321C307.087 35.352 308.427 33.4096 310.341 31.768C312.255 30.1265 314.907 29.3058 318.298 29.3058C322.727 29.3058 326.063 30.7831 328.305 33.7379C330.602 36.6926 331.75 40.9058 331.75 46.3775V73.3803H319.61V47.3624C319.61 44.5718 319.173 42.5199 318.298 41.2067C317.423 39.8388 315.864 39.1548 313.622 39.1548C312.638 39.1548 311.681 39.2916 310.751 39.5652C309.821 39.7841 308.974 40.1671 308.208 40.7143C307.497 41.2614 306.923 41.9454 306.486 42.7662C306.048 43.5322 305.829 44.435 305.829 45.4747V73.3803H293.689Z" fill="#0D3B66"/>
<path d="M349.444 73.3803C345.233 73.3803 342.034 72.3134 339.847 70.1794C337.714 68.0454 336.648 64.9266 336.648 60.8228V39.7294H330.578V30.2907H333.613C335.253 30.2907 336.374 29.9077 336.976 29.1416C337.577 28.3209 337.878 27.1718 337.878 25.6945V18.636H348.788V30.2907H357.319V39.7294H348.788V63.9417H356.663V73.3803H349.444Z" fill="#0D3B66"/>
<path d="M376.231 -1.30115e-06C345.398 -1.30453e-06 342.379 21.7539 345.739 32.7582C349.555 45.2586 372.605 76.1005 372.605 76.1005L378.053 76.1641C378.053 76.1641 401.103 45.3222 404.919 32.8218C408.278 21.8176 405.259 0.0636625 374.43 0.0636625" fill="#0D3B66"/>
<path d="M381.176 28.7082C376.065 28.7082 375.565 32.2733 376.121 34.0766C376.754 36.1252 380.574 41.1796 380.574 41.1796L381.478 41.19C381.478 41.19 385.298 36.1357 385.931 34.0871C386.488 32.2837 385.987 28.7186 380.877 28.7186" fill="white"/>
<path d="M381.026 35.7292C382.106 35.7292 382.981 34.8561 382.981 33.779C382.981 32.7018 382.106 31.8287 381.026 31.8287C379.946 31.8287 379.071 32.7018 379.071 33.779C379.071 34.8561 379.946 35.7292 381.026 35.7292Z" fill="#0D3B66"/>
<path d="M366.23 43.1966L366.23 17.4991L377.689 17.4991C379.254 17.4991 380.596 18.0612 381.714 19.1855C382.841 20.3097 383.405 21.6481 383.405 23.2007L383.405 26.0649C383.405 27.6264 382.841 28.9693 381.714 30.0935C380.596 31.2089 379.254 31.7665 377.689 31.7665L371.946 31.7665L371.946 43.1966L366.23 43.1966ZM371.946 28.9291L374.818 28.9291C375.596 28.9291 376.267 28.648 376.83 28.0859C377.403 27.5148 377.689 26.8412 377.689 26.0649L377.689 23.2007C377.689 22.4244 377.403 21.7597 376.83 21.2065C376.267 20.6443 375.596 20.3633 374.818 20.3633L371.946 20.3633L371.946 28.9291Z" fill="white"/>
</svg>
