<svg width="40" height="40" viewBox="0 0 40 40" fill="none" xmlns="http://www.w3.org/2000/svg">
<mask id="mask0_182_290" style="mask-type:alpha" maskUnits="userSpaceOnUse" x="0" y="0" width="40" height="40">
<rect width="39.5362" height="39.5362" fill="#D9D9D9"/>
</mask>
<g mask="url(#mask0_182_290)">
<path d="M6.58772 32.9459C5.68168 32.9459 4.90605 32.6233 4.26084 31.9781C3.61563 31.3328 3.29303 30.5572 3.29303 29.6512V9.88306C3.29303 8.97703 3.61563 8.2014 4.26084 7.55619C4.90605 6.91098 5.68168 6.58838 6.58772 6.58838H32.9452C33.8512 6.58838 34.6269 6.91098 35.2721 7.55619C35.9173 8.2014 36.2399 8.97703 36.2399 9.88306V29.6512C36.2399 30.5572 35.9173 31.3328 35.2721 31.9781C34.6269 32.6233 33.8512 32.9459 32.9452 32.9459H6.58772ZM19.7665 21.4145L32.9452 13.1778V9.88306L19.7665 18.1198L6.58772 9.88306V13.1778L19.7665 21.4145Z" fill="#0D3B66"/>
</g>
</svg>
