<svg width="40" height="40" viewBox="0 0 40 40" fill="none" xmlns="http://www.w3.org/2000/svg">
<mask id="mask0_185_964" style="mask-type:alpha" maskUnits="userSpaceOnUse" x="0" y="0" width="40" height="40">
<rect width="39.5362" height="39.5362" fill="#D9D9D9"/>
</mask>
<g mask="url(#mask0_185_964)">
<path d="M6.58772 32.946C5.68168 32.946 4.90605 32.6234 4.26084 31.9782C3.61563 31.333 3.29303 30.5574 3.29303 29.6514V9.88325C3.29303 8.97721 3.61563 8.20159 4.26084 7.55638C4.90605 6.91117 5.68168 6.58856 6.58772 6.58856H32.9452C33.8512 6.58856 34.6269 6.91117 35.2721 7.55638C35.9173 8.20159 36.2399 8.97721 36.2399 9.88325V29.6514C36.2399 30.5574 35.9173 31.333 35.2721 31.9782C34.6269 32.6234 33.8512 32.946 32.9452 32.946H6.58772ZM19.7665 21.4146L32.9452 13.1779V9.88325L19.7665 18.12L6.58772 9.88325V13.1779L19.7665 21.4146Z" fill="#0D3B66"/>
</g>
</svg>
