<svg width="31" height="31" viewBox="0 0 31 31" fill="none" xmlns="http://www.w3.org/2000/svg">
<g clip-path="url(#clip0_185_963)">
<path d="M28.7053 0.769531H2.28867C1.02324 0.769531 0 1.73633 0 2.93164V28.6016C0 29.7969 1.02324 30.7695 2.28867 30.7695H28.7053C29.9707 30.7695 31 29.7969 31 28.6074V2.93164C31 1.73633 29.9707 0.769531 28.7053 0.769531ZM9.19707 26.334H4.59551V12.0137H9.19707V26.334ZM6.89629 10.0625C5.41895 10.0625 4.22617 8.9082 4.22617 7.48437C4.22617 6.06055 5.41895 4.90625 6.89629 4.90625C8.36758 4.90625 9.56035 6.06055 9.56035 7.48437C9.56035 8.90234 8.36758 10.0625 6.89629 10.0625ZM26.4166 26.334H21.8211V19.373C21.8211 17.7148 21.7908 15.5762 19.4295 15.5762C17.0379 15.5762 16.6746 17.3867 16.6746 19.2559V26.334H12.0852V12.0137H16.493V13.9707H16.5535C17.165 12.8457 18.6666 11.6563 20.9008 11.6563C25.5568 11.6563 26.4166 14.6211 26.4166 18.4766V26.334V26.334Z" fill="#0D3B66"/>
</g>
<defs>
<clipPath id="clip0_185_963">
<rect width="31" height="30" fill="white" transform="translate(0 0.769531)"/>
</clipPath>
</defs>
</svg>
